<?xml version="1.0" encoding="UTF-8"?>
<svg id="Capa_2" data-name="Capa 2" xmlns="http://www.w3.org/2000/svg" viewBox="0 0 400 350.67">
  <defs>
    <style>
      .cls-1 {
        fill: #205a41;
        stroke-width: 0px;
      }
    </style>
  </defs>
  <g id="Capa_1-2" data-name="Capa 1">
    <g id="Layer_26" data-name="Layer 26">
      <g>
        <g>
          <g>
            <path class="cls-1" d="M181.43,220.56c-2.76,0-5.32-1.88-6.22-4.84-4.36-14.42-5.23-29.16-2.59-43.81,2.5-13.85,8.15-27.61,16.8-40.9,16.16-24.85,42.86-48.01,77.21-66.97,3.21-1.77,7.15-.42,8.81,3.01,1.66,3.43.4,7.65-2.81,9.43-32.46,17.92-57.52,39.54-72.47,62.53-15.58,23.96-19.79,48.32-12.5,72.41,1.11,3.68-.77,7.62-4.21,8.81-.67.23-1.35.34-2.01.34h0Z"/>
            <path class="cls-1" d="M324.19,73.74c-16.49,31.63-30.89,47.38-48.15,52.68-4.46,1.37-9.03,2-13.8,2-13.84,0-29.28-5.35-48.1-13.65-2.37-1.04-3.95-3.47-4.05-6.21-.71-20.83,1.91-39.1,7.8-54.3,5.47-14.12,13.78-25.74,24.69-34.54,32.72-26.38,82.23-22.54,117.64-10.15,2.35.82,4.06,2.99,4.43,5.6s-.67,5.23-2.68,6.76c-20.35,15.44-29.05,33.94-32.77,41.84l-5.02,9.98ZM317.53,57.47c3.18-6.77,10.78-22.93,26.72-38.27-30.71-8.16-68.48-8.72-93.79,11.69-18.51,14.92-27.71,39.35-27.4,72.65,20.73,8.88,36.41,13.39,49.38,9.42,13.62-4.18,25.69-17.95,40.34-46.06l4.75-9.44Z"/>
          </g>
          <g>
            <path class="cls-1" d="M193.31,261.94c-2.84,0-5.45-1.99-6.28-5.05l-.87-3.23c-13.3-49.22-28.38-105.01-91.15-135.96-3.28-1.62-4.71-5.77-3.2-9.28,1.51-3.51,5.39-5.04,8.67-3.43,30.42,15,53.24,36.75,69.77,66.5,14.24,25.63,21.8,53.61,28.47,78.28l.87,3.22c1.01,3.71-.99,7.59-4.46,8.67-.61.19-1.22.28-1.82.28h0Z"/>
            <path class="cls-1" d="M33.77,96.47c-3.42-8.05-11.44-26.9-31.22-43.18-1.96-1.61-2.9-4.27-2.43-6.86.47-2.6,2.26-4.69,4.63-5.41,35.84-10.9,85.45-12.67,117.18,15.06,10.59,9.25,18.47,21.21,23.41,35.54,5.33,15.44,7.29,33.8,5.81,54.59-.19,2.73-1.86,5.1-4.27,6.04-18.05,7.08-32.99,11.67-46.25,11.67-5.61,0-10.92-.82-16.03-2.62-17.05-6.01-30.87-22.36-46.2-54.66l-4.65-10.17ZM50.07,100.29c13.62,28.71,25.18,42.98,38.64,47.72,12.81,4.51,28.64.67,49.68-7.35,1.53-33.26-6.77-58.06-24.72-73.74-24.55-21.45-62.31-22.47-93.29-15.6,15.36,15.99,22.37,32.46,25.3,39.35l4.4,9.62ZM144.64,145.68h0,0Z"/>
          </g>
        </g>
        <g>
          <path class="cls-1" d="M173.86,320.19c-3.48,0-6.38-2.94-6.53-6.7-.61-15.15,2.23-29.6,8.43-42.96,5.87-12.63,14.75-24.28,26.39-34.62,21.78-19.33,53.28-34.02,91.12-42.49,3.53-.79,7,1.63,7.74,5.42.74,3.78-1.53,7.49-5.06,8.28-35.75,8-65.3,21.68-85.44,39.56-20.99,18.64-31.13,40.91-30.11,66.21.15,3.86-2.64,7.12-6.25,7.29-.1,0-.19,0-.28,0h0Z"/>
          <path class="cls-1" d="M346.34,219.22c-23.78,25.77-41.6,36.84-59.55,37.01-.14,0-.28,0-.41,0-17.96,0-34.89-11.07-56.34-28.91-2.02-1.68-2.94-4.48-2.35-7.14,4.51-20.27,11.6-37.13,21.07-50.1,8.79-12.04,19.7-20.87,32.41-26.23,38.12-16.08,84.87,1.76,115.91,23.82,2.06,1.46,3.17,4.04,2.87,6.67-.3,2.62-1.95,4.85-4.27,5.74-23.46,9.06-36.46,24.41-42.02,30.96l-7.33,8.18ZM343.98,201.64c4.76-5.61,16.11-19.02,35.29-29.24-27.56-16.64-63.82-27.97-93.3-15.53-21.56,9.09-36.52,30-44.53,62.19,17.64,14.38,31.55,23.18,44.95,23.18.1,0,.19,0,.29,0,14.17-.13,29.23-9.96,50.37-32.86l6.93-7.74Z"/>
        </g>
      </g>
      <path class="cls-1" d="M322.49,350.67c-.59,0-1.18-.11-1.76-.35-45.11-18.42-92.36-27.75-140.49-27.75-.67,0-1.34,0-2.01,0-47.46.26-94.06,9.59-138.52,27.75-2.55,1.04-5.41-.33-6.39-3.06-.97-2.73.31-5.79,2.86-6.84,45.57-18.61,93.35-28.18,142-28.44,50.06-.23,99.19,9.3,146.07,28.44,2.55,1.04,3.83,4.1,2.86,6.84-.75,2.11-2.63,3.41-4.62,3.41Z"/>
    </g>
  </g>
</svg>