<?xml version="1.0" encoding="utf-8"?>
<!-- Generator: Adobe Illustrator 28.3.0, SVG Export Plug-In . SVG Version: 6.00 Build 0)  -->
<svg version="1.1" id="Capa_2_00000063631215446995100310000013372669984985240248_"
	 xmlns="http://www.w3.org/2000/svg" xmlns:xlink="http://www.w3.org/1999/xlink" x="0px" y="0px" viewBox="0 0 400 350.7"
	 style="enable-background:new 0 0 400 350.7;" xml:space="preserve">
<style type="text/css">
	.st0{fill:#3DAE2B;}
</style>
<g id="Capa_1-2">
	<g>
		<g>
			<path class="st0" d="M107.1,53.6c-18,0-32.6,14.6-32.6,32.6s14.6,32.6,32.6,32.6s32.6-14.6,32.6-32.6S125.1,53.6,107.1,53.6z
				 M107.1,101.8c-8.7,0-15.8-7.1-15.8-15.8s7.1-15.8,15.8-15.8s15.8,7.1,15.8,15.8C122.9,94.8,115.8,101.8,107.1,101.8z"/>
			<path class="st0" d="M163.2,26.3L131,7.7c-7.4-4.2-15.6-6.4-23.8-6.4S90.7,3.4,83.3,7.7L51.1,26.3c-14.7,8.5-23.8,24.3-23.8,41.3
				v37.2c0,17,9.2,32.8,23.8,41.3l32.2,18.6c14.7,8.5,33,8.5,47.7,0l32.2-18.6c14.7-8.5,23.8-24.3,23.8-41.3V67.6
				C187,50.6,177.9,34.8,163.2,26.3L163.2,26.3z M154.8,131.4L122.5,150c-4.7,2.7-10.1,4.1-15.4,4.1c-5.3,0-10.6-1.4-15.4-4.1
				l-32.2-18.6c-9.5-5.5-15.4-15.7-15.4-26.7V67.6c0-11,5.9-21.2,15.4-26.7l32.2-18.6c9.5-5.5,21.3-5.5,30.8,0l32.2,18.6
				c9.5,5.5,15.4,15.7,15.4,26.7l0,37.2C170.2,115.7,164.3,125.9,154.8,131.4L154.8,131.4z"/>
		</g>
		<path class="st0" d="M72.4,255.7c-14.6,0-26.5,11.9-26.5,26.5c0,14.6,11.9,26.5,26.5,26.5s26.5-11.9,26.5-26.5
			C98.9,267.5,87,255.7,72.4,255.7L72.4,255.7z M72.4,293.3c-6.2,0-11.2-5-11.2-11.2s5-11.2,11.2-11.2s11.2,5,11.2,11.2c0,0,0,0,0,0
			C83.5,288.3,78.5,293.3,72.4,293.3z"/>
		<path class="st0" d="M116.6,234.5L91.5,220c-11.8-6.8-26.4-6.8-38.3,0l-25.1,14.5C16.3,241.4,9,254,9,267.6v29
			c0,13.7,7.3,26.3,19.1,33.1l25.1,14.5c11.8,6.8,26.4,6.8,38.3,0l25.1-14.5c11.8-6.9,19.1-19.5,19.1-33.1v-29
			C135.7,254,128.4,241.4,116.6,234.5L116.6,234.5z M120.4,296.6c0,8.2-4.4,15.8-11.5,19.9L83.8,331c-7.1,4.1-15.8,4.1-22.9,0
			l-25.1-14.5c-7.1-4.1-11.5-11.7-11.5-19.9v-29c0-8.2,4.4-15.8,11.5-19.9l25.1-14.5c7.1-4.1,15.9-4.1,22.9,0l25.1,14.5
			c7.1,4.1,11.5,11.7,11.5,19.9L120.4,296.6z"/>
		<path class="st0" d="M176.6,250.6l4,21.3c1.1,6,5.8,10.7,11.8,11.8l21.3,4c4.8,0.9,9.7-0.6,13.2-4.1l86.2-86.2l19.4-19.4
			c12.1,11,30.8,10.5,42.3-1.1l12.3-12.3c5.2-5.2,5.2-13.6,0-18.9l-17-17c-4.9-4.9-13-4.9-17.9,0L335.6,112c4.9-4.9,4.9-13,0-17.9
			l-17-17c-5.2-5.2-13.6-5.2-18.9,0l-12.3,12.3c-11.7,11.5-12.2,30.2-1.1,42.4L180.7,237.4C177.2,240.9,175.7,245.8,176.6,250.6
			L176.6,250.6z M229,207.1l37.7,18.7l-21.6,21.6l-37.7-18.7L229,207.1L229,207.1z M260,176.1l37.7,18.7l-21.6,21.6l-37.7-18.7
			L260,176.1L260,176.1z M307.1,185.4l-37.7-18.7l25.7-25.7l28.2,28.2L307.1,185.4L307.1,185.4z M335.7,112.1l-4.5-4.5L335.7,112.1z
			 M296.4,98.4l12.3-12.3c0.3-0.3,0.7-0.3,0.9,0l0,0l17,17c-4.9,4.9-4.9,13,0,17.9l16.6,16.6c5,4.8,12.9,4.8,17.9,0l17,17
			c0.3,0.3,0.3,0.7,0,0.9l-12.3,12.3c-7.1,7.1-18.7,7.1-25.8,0l-43.6-43.6C289.3,117.1,289.3,105.6,296.4,98.4L296.4,98.4z
			 M189.6,246.4l8.3-8.3l37.7,18.7l-17.7,17.7c-0.5,0.5-1.2,0.7-1.9,0.6l-21.3-4c-0.9-0.2-1.5-0.8-1.7-1.7l-4-21.3
			C188.9,247.6,189.1,246.9,189.6,246.4L189.6,246.4z"/>
	</g>
</g>
</svg>
