<?xml version="1.0" encoding="utf-8"?>
<!-- Generator: Adobe Illustrator 28.3.0, SVG Export Plug-In . SVG Version: 6.00 Build 0)  -->
<svg version="1.1" id="Capa_2_00000016759726638974481320000001453261710814784673_"
	 xmlns="http://www.w3.org/2000/svg" xmlns:xlink="http://www.w3.org/1999/xlink" x="0px" y="0px" viewBox="0 0 400 350.7"
	 style="enable-background:new 0 0 400 350.7;" xml:space="preserve">
<style type="text/css">
	.st0{fill:#DCAD37;}
</style>
<g id="Capa_1-2">
	<g>
		<path class="st0" d="M133.6,259.5c-2.5-2.3-6.5-2.3-8.9,0l-18.4,17.1c-2.5,2.3-2.5,6,0,8.3c1.2,1.1,2.9,1.7,4.5,1.7
			c1.6,0,3.2-0.6,4.5-1.7l18.4-17.1C136,265.4,136,261.7,133.6,259.5L133.6,259.5z"/>
		<path class="st0" d="M170.1,238.6l-52.4,48.6c-2.5,2.3-2.5,6,0,8.3c1.2,1.1,2.9,1.7,4.5,1.7l0,0c1.6,0,3.2-0.6,4.5-1.7l52.4-48.6
			c2.5-2.3,2.5-6,0-8.3C176.5,236.3,172.5,236.3,170.1,238.6L170.1,238.6z"/>
		<path class="st0" d="M163.2,175.8c-2.5,2.3-2.5,6,0,8.3c3.7,3.5,5.8,8.1,5.8,13s-2.1,9.5-5.8,13c-2.2,2-4.8,3.5-7.7,4.4
			c-0.6-1.2-1.2-2.3-2-3.3c0,0,0,0-0.1-0.1c-0.4-0.5-0.8-1-1.2-1.4c0-0.1-0.1-0.1-0.2-0.2c-0.4-0.5-0.8-0.9-1.3-1.3c0,0,0,0,0,0
			c0,0-0.1,0-0.1-0.1c-0.3-0.3-0.6-0.5-0.9-0.8c-0.1-0.1-0.2-0.2-0.4-0.3c-0.2-0.2-0.4-0.3-0.6-0.5c-0.2-0.1-0.3-0.2-0.5-0.3
			c-0.2-0.1-0.4-0.3-0.6-0.4c-0.2-0.1-0.3-0.2-0.5-0.3c-0.2-0.1-0.4-0.2-0.5-0.3c-0.4-0.2-0.8-0.5-1.3-0.7c-0.1,0-0.2-0.1-0.2-0.1
			c-0.2-0.1-0.5-0.2-0.7-0.3c-0.1-0.1-0.2-0.1-0.3-0.2c-0.3-0.1-0.5-0.2-0.8-0.3c-0.1,0-0.2-0.1-0.3-0.1c-0.3-0.1-0.5-0.2-0.8-0.3
			c-0.1,0-0.1,0-0.2-0.1c-0.6-0.2-1.2-0.4-1.8-0.5c0,0-0.1,0-0.1,0c-0.2-0.1-0.4-0.1-0.7-0.1c-0.2,0-0.4-0.1-0.6-0.1
			c-0.2,0-0.3-0.1-0.5-0.1c-0.3,0-0.6-0.1-0.9-0.1c-0.1,0-0.2,0-0.2,0c-2.3-0.2-4.6-0.1-6.9,0.3c-2.1-6.3-0.3-13.4,5-18.2
			c2.5-2.3,2.5-6,0-8.3c-2.5-2.3-6.5-2.3-8.9,0c-9.2,8.5-11.9,21-7.4,31.9c-0.2,0.1-0.3,0.3-0.4,0.4c-8.9,8.3-8.9,21.7,0,30
			c4.3,4,10.1,6.2,16.2,6.2s11.8-2.2,16.2-6.2c3.6-3.4,5.8-7.6,6.4-11.9c5.6-1.3,10.7-4,14.9-7.9c6.1-5.7,9.5-13.2,9.5-21.3
			s-3.4-15.6-9.5-21.3C169.7,173.5,165.7,173.5,163.2,175.8L163.2,175.8z M141.9,229.8c-3.9,3.6-10.6,3.6-14.5,0
			c-4-3.7-4-9.7,0-13.4c0.6-0.5,1.2-1,1.8-1.3c0.2-0.1,0.4-0.2,0.6-0.3c2.2-1.1,4.7-1.4,7.1-0.9c0.1,0,0.1,0,0.2,0
			c0.2,0,0.4,0.1,0.6,0.2c0.2,0.1,0.3,0.1,0.5,0.2c0.1,0,0.2,0.1,0.4,0.1c0.2,0.1,0.5,0.2,0.7,0.3c0.1,0,0.2,0.1,0.2,0.1
			c0.2,0.1,0.4,0.2,0.6,0.3c0.1,0,0.2,0.1,0.2,0.1c0.2,0.1,0.4,0.3,0.6,0.4c0.1,0,0.1,0.1,0.2,0.1c0.2,0.2,0.5,0.4,0.7,0.6
			c0.2,0.2,0.5,0.5,0.7,0.7c1.5,1.7,2,3.5,2.2,4.8c0,0.2,0.1,0.4,0.1,0.6C145,225.1,144,227.8,141.9,229.8L141.9,229.8z"/>
		<path class="st0" d="M373.4,64.3L363,61.1c0.4-3.1,0.5-6.2,0.2-9.4l9.3-1.5c3.4-0.6,5.7-3.6,5.1-6.8c-0.6-3.2-3.9-5.3-7.3-4.7
			l-10.1,1.7c-1.4-3.3-3.3-6.5-5.7-9.4l6.5-6.1c2.5-2.3,2.5-6,0-8.3c-2.5-2.3-6.5-2.3-8.9,0l-6.5,6.1c-3.2-2.2-6.6-4-10.1-5.3
			l1.8-9.4c0.6-3.2-1.7-6.2-5.1-6.8c-3.4-0.6-6.7,1.6-7.3,4.7l-1.7,8.6c-3.3-0.3-6.7-0.2-10.1,0.1l-3.4-9.6c-1.1-3.1-4.6-4.8-8-3.7
			c-3.3,1-5.1,4.3-4,7.4l3.2,9.1c-5,2-9.7,4.9-13.7,8.7l-0.5,0.5l-6.2-5.7c-2.5-2.3-6.5-2.3-8.9,0s-2.5,6,0,8.3l6.2,5.7l-14.5,13.4
			L257,43c-2.5-2.3-6.5-2.3-8.9,0c-2.5,2.3-2.5,6,0,8.3l6.2,5.7l-14.5,13.4l-6.2-5.7c-2.5-2.3-6.5-2.3-8.9,0c-2.5,2.3-2.5,6,0,8.3
			l6.2,5.7l-14.5,13.4l-6.2-5.7c-2.5-2.3-6.5-2.3-8.9,0c-2.5,2.3-2.5,6,0,8.3l6.2,5.7L193,113.8l-6.2-5.7c-2.5-2.3-6.5-2.3-8.9,0
			c-2.5,2.3-2.5,6,0,8.3l6.2,5.7l-4.1,3.9c-4-2.3-8.5-3.7-13.3-4.1c-9.4-0.9-18.7,2.2-25.4,8.4l-1,1l-5.7-5.3
			c-6-5.5-15.7-5.5-21.6,0l-53.8,49.9c-2.9,2.7-4.5,6.2-4.5,10c0,3.8,1.6,7.4,4.5,10l5.7,5.3l-13.3,12.3c-9.7,9-11.9,22.8-5.7,34
			l-23.1,54.9c-0.7,1.6-0.6,3.5,0.4,5l23.8,39.2c1,1.6,2.7,2.7,4.6,2.9c0.3,0,0.6,0.1,0.9,0.1c1.7,0,3.3-0.6,4.5-1.7l14-13
			c0,0,0,0,0,0l22.9-21.3c4.9,4.2,11.3,6.9,18.1,7.6c1.1,0.1,2.1,0.1,3.2,0.1l0,0c8.3,0,16.2-3,22.2-8.5l89.7-83.3
			c9.9-9.2,12-23.5,5.3-34.7l15-13.9l6.2,5.7c1.2,1.1,2.8,1.7,4.5,1.7c1.6,0,3.2-0.6,4.5-1.7c2.5-2.3,2.5-6,0-8.3l-6.2-5.7
			l14.5-13.4l6.2,5.7c1.2,1.1,2.8,1.7,4.5,1.7c1.6,0,3.2-0.6,4.5-1.7c2.5-2.3,2.5-6,0-8.3l-6.2-5.7l14.5-13.4l6.2,5.7
			c1.2,1.1,2.8,1.7,4.5,1.7c1.6,0,3.2-0.6,4.5-1.7c2.5-2.3,2.5-6,0-8.3l-6.2-5.7l14.5-13.4l6.2,5.7c1.2,1.1,2.8,1.7,4.5,1.7
			c1.6,0,3.2-0.6,4.5-1.7c2.5-2.3,2.5-6,0-8.3l-6.2-5.7L340.8,94l6.2,5.7c1.2,1.1,2.8,1.7,4.5,1.7c1.6,0,3.2-0.6,4.5-1.7
			c2.5-2.3,2.5-6,0-8.3l-6.2-5.7l0.5-0.5c4.1-3.8,7.2-8.1,9.3-12.8l9.8,3c0.6,0.2,1.3,0.3,2,0.3c2.7,0,5.1-1.6,6-4
			C378.5,68.6,376.7,65.3,373.4,64.3L373.4,64.3z M68.1,184.1l53.8-49.9l0,0c1-1,2.8-1,3.8,0l10.2,9.5c0.7,0.6,0.8,1.4,0.8,1.8
			c0,0.4-0.1,1.1-0.8,1.8L82.1,197c-1,0.9-2.5,1-3.5,0.2c-0.1-0.1-0.2-0.1-0.3-0.2l0,0l-10.2-9.4c-0.7-0.6-0.8-1.4-0.8-1.8
			C67.3,185.5,67.4,184.7,68.1,184.1L68.1,184.1z M67.9,321.1l-11.3-18.6l10.5-24.9l19,26.6C86,304.2,67.9,321.1,67.9,321.1z
			 M53.8,334.1l-18.2-30l18.7-44.4l4.3,6l-14.8,35.2c-0.7,1.6-0.6,3.5,0.4,5l14.5,23.9L53.8,334.1L53.8,334.1z M218.1,221.1
			l-89.7,83.3c-4,3.7-9.5,5.6-15.2,5c-5.6-0.5-10.7-3.3-13.8-7.7l0,0L84.6,281l-13.8-19.3c0,0,0,0,0,0l-12.8-17.9l0,0
			c-4.9-6.9-3.9-16.1,2.4-22l14.2-13.2c0.3,0.1,0.6,0.2,0.9,0.3c0.1,0,0.1,0,0.2,0.1c0.4,0.1,0.8,0.2,1.1,0.3c0.1,0,0.3,0.1,0.4,0.1
			c0.3,0.1,0.6,0.1,0.9,0.1c0.1,0,0.3,0,0.4,0c0.4,0,0.9,0.1,1.3,0.1c0,0,0,0,0.1,0c0.1,0,0.1,0,0.2,0c0.4,0,0.7,0,1.1,0
			c0.1,0,0.3,0,0.4,0c0.3,0,0.7-0.1,1-0.1c0.1,0,0.2,0,0.3,0c0.4-0.1,0.9-0.2,1.3-0.3c0.1,0,0.2-0.1,0.3-0.1c0.3-0.1,0.7-0.2,1-0.3
			c0.1,0,0.2-0.1,0.4-0.1c0.4-0.1,0.7-0.3,1.1-0.5c0.1,0,0.1,0,0.2-0.1c0.4-0.2,0.8-0.4,1.2-0.6c0.1-0.1,0.2-0.1,0.3-0.2
			c0.3-0.2,0.6-0.4,0.9-0.6c0.1-0.1,0.2-0.2,0.3-0.2c0.4-0.3,0.7-0.6,1-0.9l0,0l53.8-49.9l0,0l0,0c2.9-2.7,4.5-6.2,4.5-10
			c0-0.5,0-0.9-0.1-1.4c0-0.1,0-0.2-0.1-0.4c0-0.3-0.1-0.6-0.2-1c0-0.2-0.1-0.3-0.1-0.5c-0.1-0.3-0.1-0.5-0.2-0.8
			c-0.1-0.2-0.1-0.4-0.2-0.6c-0.1-0.2-0.1-0.3-0.2-0.5l2-1.9c4-3.7,9.5-5.5,15.2-5c4.1,0.4,7.9,2,10.8,4.5c0,0,0,0,0,0
			c1.1,1,2.1,2,2.9,3.2c0,0,0,0,0,0l2.5,3.4l15,21c0.3,0.8,0.8,1.5,1.4,2.1c0,0,0.1,0.1,0.1,0.1l20.8,29.2c0,0,0,0,0,0l1.4,2
			C225.4,206.1,224.4,215.3,218.1,221.1L218.1,221.1z M341.4,76.9l-51.7,48l0,0l0,0l-64.3,59.7l-14.5-20.4L320.1,62.9
			c2.5-2.3,2.5-6,0-8.3c-2.5-2.3-6.5-2.3-8.9,0l-107.5,99.7l-13.9-19.6c0,0,0,0-0.1-0.1c-0.2-0.2-0.3-0.5-0.5-0.7l31.7-29.4
			c0,0,0,0,0.1,0s0,0,0,0l46.7-43.3c0,0,0,0,0,0c0,0,0,0,0,0L296,34.8c6.1-5.6,14.1-8.7,22.7-8.7s16.6,3.1,22.6,8.7c0,0,0,0,0,0
			c0,0,0,0,0,0C353.9,46.5,353.9,65.3,341.4,76.9L341.4,76.9z"/>
	</g>
</g>
</svg>
