<?xml version="1.0" encoding="utf-8"?>
<!-- Generator: Adobe Illustrator 28.3.0, SVG Export Plug-In . SVG Version: 6.00 Build 0)  -->
<svg version="1.1" id="Capa_2_00000042009579420997036780000017799478337034712471_"
	 xmlns="http://www.w3.org/2000/svg" xmlns:xlink="http://www.w3.org/1999/xlink" x="0px" y="0px" viewBox="0 0 400 350.7"
	 style="enable-background:new 0 0 400 350.7;" xml:space="preserve">
<style type="text/css">
	.st0{fill:#0F4556;}
</style>
<g id="Capa_1-2">
	<g>
		<path class="st0" d="M218.5,349.8h-37.3c-31.5,0-58.2-24.6-60.8-56.1L104.3,95.6c-0.2-7.1,2.2-13.4,6.9-18.2
			c4.6-4.8,10.9-7.4,17.6-7.4H271c6.7,0,12.9,2.7,17.6,7.4c4.6,4.8,7.1,11.1,6.9,17.8l-16.1,198.5
			C276.7,325.1,250,349.8,218.5,349.8L218.5,349.8z M128.7,87.1c-2,0-3.9,0.8-5.3,2.2c-1.4,1.4-2.1,3.3-2.1,5.3l16.1,197.7
			c1.8,22.6,21,40.3,43.7,40.3h37.3c22.7,0,41.9-17.7,43.7-40.3l16.1-198.1c0-1.6-0.7-3.5-2.1-4.9c-1.4-1.4-3.3-2.2-5.3-2.2
			L128.7,87.1L128.7,87.1z"/>
		<path class="st0" d="M53.1,152.5c-6.7,0-13-3.1-17.1-8.6c-4.5-6-5.5-13.7-2.7-20.7l12.6-31.6C51,78.7,63.2,70.5,77.3,70.5
			l45.9,0.4l-7.5,50.4c-2.3,15.4-14.7,27.1-30.3,28.5L55,152.4C54.4,152.4,53.7,152.5,53.1,152.5L53.1,152.5z M77,87.6
			c-6.7,0-12.8,4.1-15.2,10.3l-12.6,31.6c-0.8,2,0.1,3.5,0.5,4.1c0.5,0.7,1.6,1.8,3.8,1.7l30.4-2.6c7.6-0.7,13.7-6.4,14.8-13.9
			l4.6-31l-26.2-0.2C77.1,87.6,77,87.6,77,87.6z"/>
		<path class="st0" d="M346.9,152.5c-0.6,0-1.3,0-1.9-0.1l-30.4-2.6c-15.5-1.3-28-13-30.3-28.5l-7.5-50.4l45.9-0.4
			c13.8,0,26.3,8.2,31.4,21.1l12.6,31.6c2.8,6.9,1.7,14.7-2.7,20.7C359.9,149.3,353.6,152.5,346.9,152.5L346.9,152.5z M296.7,87.8
			l4.6,31c1.1,7.5,7.2,13.3,14.8,13.9l30.4,2.6c2.3,0.1,3.4-1.1,3.8-1.7c0.4-0.6,1.3-2.1,0.5-4.1l-12.6-31.6
			c-2.5-6.2-8.6-10.3-15.2-10.3h-0.1L296.7,87.8L296.7,87.8z"/>
		<path class="st0" d="M125.2,87.1c-0.4,0-0.8,0-1.2-0.1c-62.6-8.8-78-72.9-78.6-75.6c-1.1-4.6,1.8-9.2,6.4-10.3
			C56.5,0.1,61,3,62.1,7.6l0,0c0.5,2.3,13.5,55.4,64.3,62.5c4.7,0.7,7.9,5,7.3,9.7C133.1,84,129.4,87.1,125.2,87.1z"/>
		<path class="st0" d="M272.7,87.1c-4.2,0-7.9-3.1-8.5-7.4c-0.7-4.7,2.6-9,7.3-9.7c50.8-7.1,63.7-60.2,64.3-62.5
			c1.1-4.6,5.7-7.5,10.3-6.4c4.6,1.1,7.5,5.6,6.4,10.2c-0.6,2.7-16,66.9-78.6,75.6C273.5,87.1,273.1,87.1,272.7,87.1L272.7,87.1z"/>
		<circle class="st0" cx="153.3" cy="160.7" r="10"/>
		<ellipse transform="matrix(0.1602 -0.9871 0.9871 0.1602 49.7734 379.9815)" class="st0" cx="248.2" cy="160.7" rx="10" ry="10"/>
		<circle class="st0" cx="224.6" cy="282.9" r="10"/>
		<circle class="st0" cx="173.3" cy="282.9" r="10"/>
		<path class="st0" d="M132.1,259.6l-12.8-11.3c0.9-1,23.2-25.5,77.7-25.5s81.3,21.8,82.5,22.7l-10.7,13.3
			c-0.2-0.2-24.6-18.9-71.7-18.9S132.3,259.4,132.1,259.6L132.1,259.6z"/>
	</g>
</g>
</svg>
