<?xml version="1.0" encoding="utf-8"?>
<!-- Generator: Adobe Illustrator 28.3.0, SVG Export Plug-In . SVG Version: 6.00 Build 0)  -->
<svg version="1.1" id="Capa_2_00000116940690028404341530000004707622610119857799_"
	 xmlns="http://www.w3.org/2000/svg" xmlns:xlink="http://www.w3.org/1999/xlink" x="0px" y="0px" viewBox="0 0 400 350.7"
	 style="enable-background:new 0 0 400 350.7;" xml:space="preserve">
<style type="text/css">
	.st0{fill:#553082;}
</style>
<g id="Capa_1-2">
	<g>
		<g>
			<path class="st0" d="M262.5,349.2c-45,0-81.5-36.5-81.5-81.5s36.5-81.5,81.5-81.5s81.5,36.5,81.5,81.5
				C343.9,312.7,307.5,349.2,262.5,349.2L262.5,349.2z M262.5,197.1c-39,0-70.6,31.6-70.6,70.6s31.6,70.6,70.6,70.6
				s70.6-31.6,70.6-70.6C333.1,228.8,301.5,197.2,262.5,197.1L262.5,197.1z"/>
			<path class="st0" d="M262.5,316.6c-1,0-1.9-0.3-2.7-0.7c-23.6-13.9-31.4-44.3-17.6-67.9c4.3-7.2,10.3-13.3,17.6-17.6
				c1.7-1,3.8-1,5.5,0c23.6,13.9,31.4,44.3,17.6,67.9c-4.3,7.2-10.3,13.3-17.6,17.6C264.4,316.4,263.4,316.6,262.5,316.6
				L262.5,316.6z M262.5,241.6c-17.4,12.4-21.5,36.6-9.1,54c2.5,3.5,5.6,6.6,9.1,9.1c17.4-12.4,21.5-36.6,9.1-54
				C269.1,247.2,266,244.1,262.5,241.6z"/>
			<path class="st0" d="M281.1,262.3h-37.3c-3,0-5.4-2.4-5.4-5.4c0-3,2.4-5.4,5.4-5.4h37.3c3,0,5.4,2.4,5.4,5.4
				C286.5,259.9,284.1,262.3,281.1,262.3z"/>
			<path class="st0" d="M267.9,244.3c-3,0-5.4-2.4-5.4-5.4c0-0.7,0.1-1.5,0.4-2.1l10.9-25.5c1.2-2.8,4.4-4,7.1-2.8
				c2.7,1.2,4,4.3,2.9,7.1L272.9,241C272,243,270.1,244.3,267.9,244.3z"/>
			<path class="st0" d="M257,244.3c-2.2,0-4.1-1.3-5-3.3l-10.9-25.5c-1.2-2.8,0.1-5.9,2.9-7.1s5.9,0.1,7.1,2.9l0,0l10.9,25.5
				c1.2,2.8-0.1,6-2.9,7.1C258.5,244.2,257.8,244.4,257,244.3L257,244.3z"/>
			<path class="st0" d="M305.9,278.6h-21.7c-3,0-5.4-2.4-5.4-5.4c0-3,2.4-5.4,5.4-5.4h21.7c3,0,5.4,2.4,5.4,5.4
				C311.4,276.2,308.9,278.6,305.9,278.6z"/>
			<path class="st0" d="M240.7,278.6H219c-3,0-5.4-2.4-5.4-5.4c0-3,2.4-5.4,5.4-5.4h21.7c3,0,5.4,2.4,5.4,5.4
				C246.2,276.2,243.7,278.6,240.7,278.6z"/>
			<path class="st0" d="M208.7,327c-3,0-5.4-2.4-5.4-5.4c0-1.4,0.6-2.8,1.6-3.8l107.6-107.6c2.1-2.1,5.6-2.1,7.7,0
				c2.1,2.1,2.1,5.6,0,7.7L212.5,325.4C211.5,326.4,210.1,326.9,208.7,327L208.7,327z"/>
			<path class="st0" d="M300.5,311.2c-1.4,0-2.8-0.6-3.8-1.6L278.1,291c-2.1-2.1-2.1-5.6,0-7.7c2.1-2.1,5.6-2.1,7.7,0l18.6,18.6
				c2.1,2.1,2.1,5.6,0,7.7C303.3,310.6,301.9,311.2,300.5,311.2L300.5,311.2L300.5,311.2z"/>
			<path class="st0" d="M246.3,257.1c-1.4,0-2.8-0.6-3.8-1.6L226,239c-2.1-2.1-2.2-5.5-0.1-7.7c2.1-2.1,5.5-2.2,7.7-0.1
				c0,0,0,0,0.1,0.1l16.5,16.5c2.1,2.1,2.1,5.6,0,7.7C249.2,256.5,247.8,257.1,246.3,257.1L246.3,257.1L246.3,257.1z"/>
		</g>
		<path class="st0" d="M197.3,28.6h-43.5c-3,0-5.4-2.4-5.4-5.4l0,0V6.9c0-3,2.4-5.4,5.4-5.4l0,0h43.5c3,0,5.4,2.4,5.4,5.4l0,0v16.3
			C202.7,26.2,200.3,28.6,197.3,28.6L197.3,28.6L197.3,28.6z M159.2,17.7h32.6v-5.4h-32.6V17.7z"/>
		<path class="st0" d="M208.1,99.2H143c-3,0-5.4-2.4-5.4-5.4l0,0v-38c0-3,2.4-5.4,5.4-5.4h65.2c3,0,5.4,2.4,5.4,5.4l0,0v38
			C213.6,96.8,211.2,99.2,208.1,99.2L208.1,99.2L208.1,99.2z M148.4,88.4h54.3V61.2h-54.3C148.4,61.2,148.4,88.4,148.4,88.4z"/>
		<path class="st0" d="M175.5,61.2c-3,0-5.4-2.4-5.4-5.4l0,0V23.2c0-3,2.4-5.4,5.4-5.4c3,0,5.4,2.4,5.4,5.4v32.6
			C181,58.8,178.6,61.2,175.5,61.2L175.5,61.2L175.5,61.2z"/>
		<path class="st0" d="M284.2,72.1c-0.1,0-0.3,0-0.4,0l-76.1-5.4c-3-0.2-5.2-2.8-5-5.8l0,0c0.2-3,2.7-5.2,5.7-5c0,0,0.1,0,0.1,0
			l76.1,5.4c3,0.2,5.2,2.8,5,5.8C289.4,69.8,287.1,72.1,284.2,72.1L284.2,72.1z"/>
		<path class="st0" d="M284.2,88.4c-3,0-5.4-2.4-5.4-5.4l0,0V66.6c0-3,2.4-5.4,5.4-5.4c3,0,5.4,2.4,5.4,5.4v16.3
			C289.6,85.9,287.2,88.4,284.2,88.4L284.2,88.4L284.2,88.4z"/>
		<path class="st0" d="M208.1,93.8c-3,0-5.4-2.4-5.4-5.4c0-2.8,2.2-5.2,5-5.4l76.1-5.4c3-0.2,5.6,2,5.8,5s-2,5.6-5,5.8l0,0
			l-76.1,5.4C208.4,93.8,208.3,93.8,208.1,93.8L208.1,93.8z"/>
		<path class="st0" d="M257,90.3c-3,0-5.4-2.4-5.4-5.4l0,0V64.7c0-3,2.4-5.4,5.4-5.4c3,0,5.4,2.4,5.4,5.4v20.2
			C262.5,87.9,260,90.3,257,90.3L257,90.3L257,90.3z"/>
		<path class="st0" d="M143,67.2L143,67.2l-54.4-0.6c-3,0-5.4-2.5-5.4-5.5c0-2.9,2.3-5.3,5.2-5.4c0.1,0,0.2,0,0.3,0l54.3,0.6
			c3,0,5.4,2.5,5.4,5.5C148.4,64.8,146,67.2,143,67.2L143,67.2z"/>
		<path class="st0" d="M61.5,164.4c-3,0-5.4-2.5-5.4-5.5c0-0.5,0.1-1,0.2-1.4l27.2-97.8c0.8-2.9,3.8-4.6,6.7-3.8
			c2.9,0.8,4.6,3.8,3.8,6.7l-27.2,97.8C66,162.8,63.9,164.4,61.5,164.4L61.5,164.4z"/>
		<path class="st0" d="M72.3,191.6c-2.2,0-4.2-1.4-5-3.4L56.4,161c-1.1-2.8,0.3-5.9,3-7.1c2.8-1.1,5.9,0.2,7,3l10.9,27.2
			c1.1,2.8-0.2,5.9-3,7.1C73.7,191.4,73,191.6,72.3,191.6z"/>
		<path class="st0" d="M72.3,191.6c-0.7,0-1.3-0.1-2-0.4c-2.8-1.1-4.2-4.2-3.1-7l0,0l38-97.8c1.1-2.8,4.2-4.2,7-3.1
			c2.8,1.1,4.2,4.2,3.1,7c0,0,0,0,0,0l-38,97.8C76.6,190.2,74.6,191.6,72.3,191.6L72.3,191.6z"/>
		<path class="st0" d="M143,93.8h-32.6c-3,0-5.4-2.4-5.4-5.4s2.4-5.4,5.4-5.4H143c3,0,5.4,2.4,5.4,5.4S146,93.8,143,93.8z"/>
		<path class="st0" d="M132.1,148.1c-3,0-5.4-2.4-5.4-5.4c0-0.6,0.1-1.2,0.3-1.7l16.3-48.9c0.9-2.8,4-4.4,6.9-3.5
			c2.8,0.9,4.4,4,3.5,6.9c0,0,0,0,0,0l-16.3,48.9C136.5,146.6,134.4,148.1,132.1,148.1L132.1,148.1z"/>
		<path class="st0" d="M219,148.1c-2.3,0-4.4-1.5-5.1-3.7l-16.3-48.9c-1-2.8,0.6-5.9,3.4-6.9c2.8-1,5.9,0.6,6.9,3.4c0,0,0,0,0,0
			l16.3,48.9c0.9,2.9-0.6,5.9-3.4,6.9C220.2,148,219.6,148.1,219,148.1L219,148.1z"/>
		<path class="st0" d="M219,148.1h-86.9c-3,0-5.4-2.4-5.4-5.4c0-3,2.4-5.4,5.4-5.4H219c3,0,5.4,2.4,5.4,5.4
			C224.4,145.7,222,148.1,219,148.1z"/>
		<path class="st0" d="M240.7,169.8c-3,0-5.4-2.4-5.4-5.4l0,0c0-9-7.3-16.3-16.3-16.3c-3,0-5.4-2.4-5.4-5.4c0-3,2.4-5.4,5.4-5.4
			c15,0,27.1,12.2,27.2,27.2C246.2,167.4,243.8,169.8,240.7,169.8L240.7,169.8L240.7,169.8z"/>
		<path class="st0" d="M240.7,200.3c-3,0-5.4-2.4-5.4-5.4l0,0v-30.4c0-3,2.4-5.4,5.4-5.4c3,0,5.4,2.4,5.4,5.4v30.4
			C246.2,197.8,243.8,200.3,240.7,200.3L240.7,200.3L240.7,200.3z"/>
		<path class="st0" d="M229.9,349.1c-3,0-5.4-2.4-5.4-5.4s2.4-5.4,5.4-5.4c1.6,0,3.1-0.7,4.2-1.9c1.9-2.3,5.4-2.6,7.7-0.7
			c2.3,1.9,2.6,5.4,0.7,7.7c0,0,0,0,0,0C239.2,347,234.7,349.1,229.9,349.1L229.9,349.1z"/>
		<path class="st0" d="M110.4,169.8c-3,0-5.4-2.4-5.4-5.4l0,0c0-15,12.2-27.1,27.2-27.2c3,0,5.4,2.4,5.4,5.4c0,3-2.4,5.4-5.4,5.4
			c-9,0-16.3,7.3-16.3,16.3C115.8,167.4,113.4,169.8,110.4,169.8L110.4,169.8L110.4,169.8z"/>
		<path class="st0" d="M110.4,338.3c-3,0-5.4-2.4-5.4-5.4l0,0V164.4c0-3,2.4-5.4,5.4-5.4c3,0,5.4,2.4,5.4,5.4v168.4
			C115.8,335.8,113.4,338.3,110.4,338.3L110.4,338.3L110.4,338.3z"/>
		<path class="st0" d="M121.2,349.1c-9,0-16.3-7.3-16.3-16.3c0-3,2.4-5.4,5.4-5.4s5.4,2.4,5.4,5.4s2.4,5.4,5.4,5.4s5.4,2.4,5.4,5.4
			C126.7,346.7,124.2,349.1,121.2,349.1L121.2,349.1z"/>
		<path class="st0" d="M229.9,349.1H121.2c-3,0-5.4-2.4-5.4-5.4s2.4-5.4,5.4-5.4h108.7c3,0,5.4,2.4,5.4,5.4S232.9,349.1,229.9,349.1
			z"/>
	</g>
</g>
</svg>
