<?xml version="1.0" encoding="UTF-8"?>
<svg id="Capa_1" xmlns="http://www.w3.org/2000/svg" version="1.1" viewBox="0 0 380.91 93.3">
  <!-- Generator: Adobe Illustrator 29.7.1, SVG Export Plug-In . SVG Version: 2.1.1 Build 8)  -->
  <defs>
    <style>
      .st0 {
        fill: #205a41;
      }

      .st1 {
        fill: #ffd600;
      }

      .st2 {
        fill: #3dae2b;
      }
    </style>
  </defs>
  <g>
    <path class="st2" d="M59.41,31.26c-1.54-2.43-3.22-4.91-4.95-7.34l-18.25,18.25v12.29l23.21-23.21Z"/>
    <polygon class="st0" points="49.16 16.81 36.21 1.23 36.21 29.76 49.16 16.81"/>
    <path class="st0" d="M36.21,54.47v-12.29l-18.25-18.25c-1.74,2.43-3.42,4.9-4.95,7.34l23.21,23.21Z"/>
    <path class="st0" d="M2.6,57.97c-.26,3.84.19,7.37,1.22,10.77,4.8,15.8,27.07,21.31,31.86,22.32L2.6,57.97Z"/>
    <path class="st0" d="M36.21,79.17v-12.29l-27.71-27.71c-1.56,3.06-2.78,5.9-3.7,8.59l31.42,31.42Z"/>
    <path class="st2" d="M67.62,47.75c-.92-2.68-2.15-5.53-3.7-8.59l-27.71,27.71v12.29l31.42-31.42Z"/>
    <path class="st2" d="M36.73,91.06c4.78-1.01,27.05-6.52,31.86-22.32,1.03-3.4,1.49-6.93,1.22-10.77l-33.08,33.08Z"/>
  </g>
  <polygon class="st1" points="374.75 38.26 374.75 29.8 369.75 29.8 369.75 43.26 374.75 38.26"/>
  <g>
    <path class="st0" d="M145.04,63.85c-1.72,2.1-3.82,3.76-6.23,4.94-2.41,1.17-4.99,1.77-7.67,1.77-3.23,0-6.24-.82-8.96-2.43-2.73-1.62-4.93-3.84-6.55-6.61-1.61-2.76-2.43-5.83-2.43-9.1s.82-6.33,2.43-9.1c1.61-2.77,3.82-4.99,6.55-6.61,2.72-1.61,5.74-2.43,8.96-2.43,2.51,0,4.94.53,7.22,1.58,2.29,1.05,4.29,2.54,5.97,4.42l.66.75,3.84-3.41-.69-.75c-2.22-2.4-4.83-4.28-7.76-5.6-2.94-1.32-6.05-1.99-9.25-1.99-4.12,0-7.99,1.06-11.51,3.14-3.51,2.08-6.33,4.92-8.36,8.43-2.04,3.52-3.07,7.41-3.07,11.57s1.03,8.07,3.07,11.6c2.03,3.54,4.85,6.39,8.36,8.47,3.52,2.09,7.39,3.14,11.51,3.14,3.47,0,6.8-.76,9.91-2.27,3.1-1.5,5.77-3.65,7.95-6.38l.63-.79-3.97-3.09-.62.75Z"/>
    <path class="st0" d="M151.14,75.15h5.61l5.25-11.25h22.3l4.98,11.25h5.52l-21.21-48.29-22.46,48.29ZM173.41,39.29l8.64,19.55h-17.69l9.05-19.55Z"/>
    <path class="st0" d="M222.83,52.27c-.87-.48-1.93-.89-3.16-1.22-1.21-.32-2.46-.58-3.72-.76l-2.35-.34c-1.74-.22-3.2-.43-4.32-.62-1.04-.19-2-.48-2.83-.88-1.37-.68-2.53-1.65-3.45-2.88-.9-1.19-1.33-2.33-1.33-3.5,0-.94.26-1.83.79-2.72.55-.92,1.36-1.78,2.42-2.55,1.05-.81,2.32-1.44,3.77-1.87,2.95-.87,6.29-.87,9.2,0,1.44.43,2.72,1.06,3.82,1.87,1,.76,1.78,1.61,2.31,2.51.51.87.79,1.79.83,2.74l.07,1.62,4.91-2.74-.12-.7c-.49-2.82-2.14-5.32-4.94-7.45-3.27-2.34-7.12-3.52-11.45-3.52-2.14,0-4.21.31-6.17.91-1.97.61-3.75,1.49-5.3,2.62-1.62,1.19-2.89,2.59-3.78,4.15-.91,1.59-1.36,3.32-1.36,5.13,0,2.25.69,4.36,2.05,6.28,1.33,1.88,3.19,3.42,5.51,4.56,1.46.71,3.23,1.23,5.25,1.56,1.95.31,3.07.49,3.41.54,3.64.43,6.18,1,7.51,1.69,1.42.77,2.53,1.7,3.3,2.78.75,1.04,1.11,2.11,1.11,3.28,0,2.04-1.02,3.78-3.13,5.34-2.26,1.68-5.08,2.53-8.4,2.53-1.63,0-3.19-.22-4.65-.66-1.43-.43-2.69-1.06-3.79-1.9-2.02-1.38-3.05-3.1-3.17-5.23l-.09-1.6-4.9,2.74.14.71c.58,2.95,2.26,5.47,5,7.48,1.55,1.13,3.33,2.01,5.29,2.62,1.95.6,4.03.91,6.17.91,4.33,0,8.18-1.18,11.46-3.53,1.63-1.2,2.89-2.62,3.76-4.23.88-1.63,1.32-3.37,1.32-5.18,0-2.11-.63-4.1-1.87-5.93-1.22-1.79-2.93-3.32-5.11-4.55Z"/>
    <path class="st0" d="M234.96,75.15h5.61l5.25-11.25h22.3l4.98,11.25h5.52l-21.21-48.29-22.46,48.29ZM257.24,39.29l8.64,19.55h-17.7l9.05-19.55Z"/>
    <path class="st0" d="M293.61,36.8c2.72-1.59,5.71-2.4,8.9-2.4,2.43,0,4.81.5,7.07,1.48,2.26.98,4.26,2.4,5.94,4.2l.68.73,3.66-3.43-.67-.73c-2.13-2.31-4.67-4.14-7.56-5.44-2.9-1.3-5.96-1.95-9.11-1.95-4.12,0-7.97,1.05-11.45,3.11-3.47,2.06-6.26,4.87-8.29,8.36-2.04,3.5-3.07,7.36-3.07,11.48s1.03,8.05,3.07,11.54c2.03,3.49,4.82,6.29,8.29,8.33,3.47,2.04,7.32,3.07,11.44,3.07h16.67v-23.54h-19.41v5h14.27v13.54h-11.54c-3.18,0-6.17-.82-8.89-2.43-2.73-1.61-4.92-3.82-6.52-6.55-1.59-2.72-2.4-5.74-2.4-8.97s.81-6.23,2.4-8.93c1.59-2.7,3.78-4.88,6.51-6.48Z"/>
    <path class="st0" d="M349.21,55.91c1.41-.17,2.87-.59,4.31-1.24,2.15-.91,4.04-2.42,5.61-4.48,1.6-2.1,2.41-4.52,2.41-7.18,0-1.69-.38-3.36-1.13-4.96-.75-1.58-1.82-3.01-3.2-4.25-1.42-1.28-3.1-2.28-5-2.96-1.88-.68-3.92-1.03-6.08-1.03h-16.14v45.35h5v-40.35h11.14c2.1,0,3.96.41,5.55,1.22,1.57.81,2.79,1.85,3.63,3.1.83,1.24,1.23,2.51,1.23,3.88,0,1.53-.48,2.88-1.46,4.16-1.01,1.31-2.21,2.3-3.52,2.92-1.91.79-4.48,1.19-7.62,1.19h-7.46l19.65,23.88h6.59l-15.72-19.06c.76-.04,1.5-.1,2.21-.19Z"/>
    <polygon class="st0" points="369.75 47.23 369.75 75.15 374.75 75.15 374.75 42.23 369.75 47.23"/>
  </g>
</svg>